<svg width="212" height="116" viewBox="0 0 212 116" fill="none" xmlns="http://www.w3.org/2000/svg">
<g clip-path="url(#clip0_521_3059)">
<path d="M87.471 27.2396C87.4239 27.3066 87.37 27.3669 87.3229 27.4338C88.8779 25.3302 89.8001 22.7309 89.8001 19.9238C89.8001 17.1168 88.9183 14.6179 87.4171 12.5411C87.4373 12.5679 87.4575 12.588 87.471 12.6148C87.269 12.3334 87.0873 12.0386 86.9257 11.7305C86.2862 14.082 85.9766 16.8019 85.9766 19.9238C85.9766 23.0457 86.2862 25.7657 86.9257 28.1172C87.0873 27.809 87.269 27.5142 87.471 27.2329V27.2396Z" fill="white"/>
<path d="M113.347 38.3668C113.415 38.4137 113.475 38.4673 113.543 38.5142C111.429 36.9666 108.817 36.0488 105.996 36.0488C103.176 36.0488 100.665 36.9264 98.5782 38.4204C98.6051 38.4003 98.6253 38.3802 98.6523 38.3668C98.3695 38.5678 98.0733 38.742 97.7637 38.9095C100.126 39.5459 102.86 39.8541 105.996 39.8541C109.133 39.8541 111.866 39.5459 114.229 38.9095C113.92 38.7487 113.623 38.5678 113.341 38.3668H113.347Z" fill="white"/>
<path d="M124.528 12.6159C124.575 12.5489 124.629 12.4886 124.676 12.4216C123.121 14.5252 122.199 17.1246 122.199 19.9316C122.199 22.7387 123.081 25.2376 124.582 27.3144C124.562 27.2876 124.542 27.2675 124.528 27.2407C124.73 27.5221 124.912 27.8168 125.074 28.125C125.713 25.7735 126.023 23.0536 126.023 19.9316C126.023 16.8097 125.713 14.0898 125.074 11.7383C124.912 12.0465 124.73 12.3412 124.528 12.6226V12.6159Z" fill="white"/>
<path d="M98.6524 1.48727C98.585 1.44037 98.5244 1.38677 98.4571 1.33988C100.571 2.88744 103.183 3.80526 106.003 3.80526C108.824 3.80526 111.335 2.92763 113.422 1.43367C113.395 1.45377 113.374 1.47387 113.348 1.48727C113.63 1.28628 113.926 1.1121 114.236 0.944614C111.873 0.308172 109.14 0 106.003 0C102.866 0 100.133 0.308172 97.7705 0.944614C98.0802 1.1054 98.3764 1.28628 98.6591 1.48727H98.6524Z" fill="white"/>
<path d="M97.7638 0.944615C96.6733 0.361767 95.4212 0.0200982 94.1018 0H94.0816C89.7599 0 86.2257 3.37649 85.9901 7.62391C85.9901 7.7378 85.9834 7.85169 85.9834 7.97228V8.08617C86.0036 9.40595 86.3469 10.6453 86.9326 11.7373C88.4876 5.99596 92.0015 2.49887 97.7705 0.951314L97.7638 0.944615Z" fill="white"/>
<path d="M86.9257 28.1172C86.3401 29.2092 85.9968 30.4486 85.9766 31.7684V31.7885C85.9766 36.0895 89.3761 39.6066 93.6372 39.8411C93.7516 39.8411 93.8661 39.8478 93.9805 39.8478H94.0949C95.4211 39.8277 96.6664 39.4861 97.7637 38.9032C91.9947 37.3557 88.4807 33.8586 86.9257 28.1172Z" fill="white"/>
<path d="M126.023 8.05937C126.023 3.75836 122.624 0.241178 118.363 0.00669939C118.248 0.00669939 118.134 0 118.013 0H117.898C116.572 0.0200982 115.327 0.361767 114.229 0.944615C119.999 2.49217 123.512 5.98926 125.067 11.7306C125.653 10.6386 125.996 9.39925 126.017 8.07947V8.05937H126.023Z" fill="white"/>
<path d="M114.236 38.9032C115.334 39.4861 116.579 39.8277 117.905 39.8478H117.925C122.247 39.8478 125.781 36.4646 126.017 32.2239C126.017 32.11 126.023 31.9961 126.023 31.8822V31.7684C126.003 30.4486 125.66 29.2092 125.074 28.1172C123.519 33.8586 120.005 37.3557 114.236 38.9032Z" fill="white"/>
<path d="M0 60.1473V59.5645H24.7388V66.6859H24.1936C23.8031 65.6877 23.379 64.7833 22.9146 63.9794C22.4568 63.1754 21.9183 62.4854 21.3057 61.9159C20.6931 61.3465 19.9728 60.911 19.1516 60.6029C18.3303 60.2947 17.3609 60.1473 16.2435 60.1473H9.92246V73.5595H12.2651C13.295 73.5595 14.1701 73.4121 14.8837 73.124C15.5972 72.8293 16.1896 72.4139 16.6608 71.8712C17.1321 71.3286 17.5225 70.6787 17.8322 69.915C18.1418 69.1513 18.3909 68.2938 18.5861 67.3558H19.1314V80.3125H18.5861C18.3909 79.5085 18.162 78.7314 17.8927 77.9811C17.6302 77.2308 17.2734 76.5742 16.8224 76.0048C16.3781 75.4353 15.8261 74.9865 15.1664 74.6515C14.5134 74.3165 13.6922 74.149 12.7161 74.149H9.909V88.6465H13.7999V89.2294H0V88.6465H3.85051V60.1473H0Z" fill="white"/>
<path d="M41.6954 59.5653V60.1481H37.8449V78.8528C37.8449 80.1592 37.9055 81.4321 38.0334 82.6648C38.1613 83.9042 38.4507 85.0029 38.9152 85.9743C39.373 86.9457 40.0596 87.7295 40.9684 88.3258C41.8772 88.922 42.7186 89.2235 44.2534 89.2235C45.7882 89.2235 47.0201 89.0493 48.0434 88.701C49.0598 88.3526 49.908 87.897 50.5745 87.3276C51.2476 86.7581 51.7592 86.1217 52.1227 85.4116C52.4862 84.7014 52.7488 83.998 52.9171 83.2878C53.0854 82.5777 53.1796 81.9145 53.2133 81.2847C53.2402 80.6617 53.2537 80.1391 53.2537 79.7238V60.1414H49.8272V59.5586H58.2014V60.1414H55.0712V79.6836C55.0712 80.1257 55.0577 80.6885 55.0308 81.3718C55.0039 82.0552 54.8894 82.7653 54.6942 83.5156C54.499 84.266 54.2028 85.0163 53.8124 85.7666C53.4219 86.517 52.8498 87.1869 52.0958 87.7898C51.3419 88.3928 50.3927 88.8751 49.2483 89.2503C48.1039 89.6255 46.697 89.8131 45.0208 89.8131C42.3147 89.8131 39.3797 89.5116 37.7305 88.9153C36.0812 88.3191 34.8224 87.542 33.9405 86.584C33.0587 85.6259 32.4798 84.5339 32.2038 83.3146C31.9278 82.0954 31.7864 80.856 31.7864 79.6099V60.1548H27.8955V59.572H41.7089L41.6954 59.5653Z" fill="white"/>
<path d="M72.9782 83.3138C72.8772 84.3388 72.5675 85.337 72.0357 86.295C71.5039 87.253 70.6759 88.0771 69.545 88.7738C68.4141 89.4705 66.8187 89.8122 64.7521 89.8122C64.0251 89.8122 63.2711 89.7519 62.4902 89.6246C61.7094 89.4973 60.9958 89.2696 60.3563 88.9346C59.7168 88.5996 59.185 88.1441 58.7676 87.5612C58.3503 86.9784 58.1416 86.2414 58.1416 85.3504C58.1416 85.2097 58.1551 84.982 58.182 84.6604C58.2089 84.3388 58.3301 84.0172 58.5388 83.6823C58.7474 83.3473 59.0773 83.0525 59.5216 82.7845C59.9659 82.5233 60.6121 82.3893 61.4468 82.3893C61.669 82.3893 61.9315 82.4094 62.221 82.4496C62.5172 82.4898 62.7932 82.5836 63.0557 82.7176C63.3182 82.8582 63.5404 83.0592 63.7289 83.3205C63.9106 83.5818 63.9981 83.9368 63.9981 84.3857C63.9981 84.58 63.9712 84.8279 63.9174 85.136C63.8635 85.4442 63.7895 85.7591 63.7087 86.094C63.6279 86.429 63.5539 86.7305 63.5 87.0119C63.4461 87.2865 63.4192 87.4875 63.4192 87.5947C63.4192 88.0101 63.4933 88.3316 63.6481 88.5527C63.8029 88.7738 63.9779 88.9346 64.1732 89.0351C64.3684 89.1356 64.5703 89.1892 64.779 89.2026C64.9877 89.216 65.1493 89.2227 65.257 89.2227C65.7282 89.2227 66.085 89.1356 66.3273 88.9547C66.5629 88.7738 66.7379 88.546 66.8524 88.2647C66.9601 87.99 67.0274 87.6885 67.0408 87.3669C67.0543 87.0454 67.061 86.764 67.061 86.5161V60.1473H63.2105V59.5645H76.9835V60.1473H73.133V80.7278C73.133 81.4246 73.0859 82.2821 72.9849 83.3138H72.9782Z" fill="white"/>
<path d="M93.4761 59.5645V60.1473H89.6256V88.6465H93.4761V89.2294H79.7031V88.6465H83.5536V60.1473H79.7031V59.5645H93.4761Z" fill="white"/>
<path d="M107.08 59.5645L114.324 80.3125H113.651L121.015 59.5645H132.237V60.1473H128.386V88.6465H132.237V89.2294H118.504V88.6465H122.314V60.1473H122.233L111.934 89.2294H111.268L100.928 60.1473H100.847V88.6465H104.697V89.2294H96.3232V88.6465H99.0361V60.1473H96.3232V59.5645H107.08Z" fill="white"/>
<path d="M135.232 68.066C136.195 66.15 137.427 64.5086 138.935 63.1486C140.443 61.7887 142.132 60.7369 143.997 59.9999C145.868 59.263 147.693 58.8945 149.483 58.8945C151.409 58.8945 153.314 59.2563 155.199 59.9798C157.083 60.7034 158.76 61.7284 160.22 63.0616C161.688 64.3947 162.873 66.0093 163.781 67.9119C164.69 69.8145 165.141 71.9583 165.141 74.35C165.141 76.4335 164.717 78.4099 163.862 80.2857C163.007 82.1615 161.87 83.8029 160.429 85.2231C158.988 86.6367 157.332 87.7555 155.448 88.5795C153.563 89.3969 151.577 89.8055 149.483 89.8055C147.39 89.8055 145.438 89.4103 143.539 88.6197C141.641 87.8292 139.972 86.7439 138.538 85.3705C137.097 83.9972 135.946 82.3759 135.084 80.5135C134.216 78.651 133.785 76.6412 133.785 74.4706C133.785 72.1124 134.27 69.9686 135.232 68.0526V68.066ZM141.116 81.6658C141.453 83.5684 141.971 85.0825 142.684 86.208C143.398 87.3335 144.313 88.1173 145.444 88.5594C146.575 89.0016 147.922 89.2294 149.483 89.2294C151.55 89.2294 153.166 88.8475 154.337 88.0838C155.508 87.3201 156.39 86.2683 156.976 84.915C157.561 83.5684 157.932 81.9739 158.086 80.1249C158.241 78.2759 158.315 76.2728 158.315 74.1022C158.315 72.1593 158.255 70.3036 158.127 68.5417C157.999 66.7797 157.642 65.2255 157.056 63.8722C156.471 62.5256 155.582 61.4537 154.397 60.6632C153.213 59.8726 151.57 59.4774 149.477 59.4774C147.524 59.4774 145.963 59.8458 144.785 60.5828C143.613 61.3197 142.718 62.3514 142.105 63.6846C141.493 65.0178 141.089 66.5988 140.894 68.4345C140.699 70.2701 140.598 72.2799 140.598 74.4773C140.598 77.3648 140.766 79.7631 141.102 81.6658H141.116Z" fill="white"/>
<path d="M166.871 60.1468V59.5639H173.192C174.363 59.5639 175.521 59.5438 176.666 59.5037C177.81 59.4635 178.968 59.4434 180.139 59.4434C181.23 59.4434 182.381 59.5572 183.592 59.7783C184.804 59.9994 185.915 60.3813 186.918 60.9239C187.921 61.4666 188.756 62.1968 189.409 63.1079C190.062 64.0257 190.391 65.178 190.391 66.5648C190.391 67.6769 190.142 68.6282 189.637 69.4188C189.133 70.2093 188.486 70.8591 187.692 71.3549C186.898 71.8573 186.009 72.2392 185.033 72.5005C184.057 72.7618 183.094 72.9359 182.145 73.023V73.2307C183.512 73.4786 184.73 73.7332 185.807 73.981C186.884 74.2289 187.806 74.6041 188.594 75.1065C189.375 75.609 189.994 76.299 190.459 77.1901C190.916 78.0811 191.206 79.2736 191.314 80.7742C191.455 82.5228 191.563 83.9296 191.65 84.9814C191.731 86.0399 191.852 86.8573 192.007 87.4401C192.162 88.023 192.37 88.4115 192.633 88.6058C192.896 88.8001 193.279 88.9006 193.784 88.9006C194.343 88.9006 194.801 88.7398 195.164 88.4182C195.528 88.0967 195.844 87.8019 196.127 87.5205L196.544 87.8957C196.268 88.1704 195.992 88.4316 195.73 88.6661C195.467 88.9006 195.157 89.1016 194.807 89.2691C194.457 89.4365 194.033 89.5638 193.528 89.6643C193.023 89.7648 192.397 89.8117 191.643 89.8117C190.109 89.8117 188.91 89.5705 188.042 89.0815C187.174 88.5924 186.534 87.9895 186.117 87.2659C185.699 86.5424 185.437 85.7586 185.343 84.9145C185.242 84.0703 185.181 83.2664 185.154 82.5161C185.1 81.3772 185.02 80.2718 184.925 79.2066C184.824 78.1347 184.595 77.1834 184.232 76.3526C183.868 75.5219 183.323 74.852 182.603 74.3562C181.876 73.8538 180.859 73.6059 179.547 73.6059H176.787V88.646H180.637V89.2289H166.864V88.646H170.715V60.1468H166.864H166.871ZM178.51 73.023C179.769 73.023 180.758 72.8555 181.485 72.5206C182.212 72.1856 182.758 71.7367 183.121 71.1673C183.485 70.5978 183.714 69.9547 183.815 69.2312C183.916 68.5076 183.963 67.7707 183.963 67.0204C183.963 65.8011 183.882 64.7493 183.714 63.8717C183.545 62.994 183.269 62.2772 182.879 61.7078C182.488 61.1383 181.95 60.7162 181.27 60.4349C180.583 60.1602 179.715 60.0195 178.651 60.0195C178.342 60.0195 178.039 60.0329 177.729 60.0597C177.419 60.0865 177.117 60.1133 176.807 60.1401V73.0163H178.523L178.51 73.023Z" fill="white"/>
<path d="M212 59.5645V60.1473H208.149V88.6465H212V89.2294H198.227V88.6465H202.077V60.1473H198.227V59.5645H212Z" fill="white"/>
<path d="M70.7498 106.365C72.0558 106.365 73.1934 106.506 74.2301 107.27C75.3677 108.12 76.0274 109.474 76.0274 111.028C76.0274 112.582 75.3812 113.915 74.1493 114.786C73.052 115.557 72.0288 115.677 70.7229 115.677H68.7842V106.365H70.7498ZM70.218 114.338H70.8373C71.5374 114.338 72.5068 114.284 73.3213 113.681C73.9676 113.192 74.6003 112.301 74.6003 111.028C74.6003 109.755 74.0079 108.837 73.3348 108.348C72.5202 107.759 71.524 107.705 70.8373 107.705H70.218V114.338Z" fill="white"/>
<path d="M82.9884 107.705H79.259V110.063H82.8807V111.403H79.259V114.338H82.9884V115.677H77.8252V106.365H82.9884V107.705Z" fill="white"/>
<path d="M86.9934 106.365C87.5656 106.365 88.3666 106.419 89.0398 106.868C89.8274 107.384 90.2044 108.281 90.2044 109.132C90.2044 109.675 90.063 110.512 89.2956 111.169C88.5551 111.798 87.6935 111.892 87.0068 111.892H86.3606V115.677H84.9268V106.365H86.9866H86.9934ZM86.3606 110.579H87.0068C88.2387 110.579 88.8311 109.976 88.8311 109.112C88.8311 108.596 88.6224 107.672 86.9934 107.672H86.3606V110.579Z" fill="white"/>
<path d="M92.9846 106.365V111.979C92.9846 112.482 92.9981 113.098 93.2808 113.587C93.5636 114.063 94.1896 114.552 95.0176 114.552C95.8456 114.552 96.4783 114.063 96.7543 113.587C97.0371 113.098 97.0505 112.482 97.0505 111.979V106.365H98.4844V112.354C98.4844 113.091 98.3296 113.989 97.616 114.773C97.1246 115.302 96.2966 115.865 95.0176 115.865C93.7386 115.865 92.9106 115.309 92.4192 114.773C91.7056 113.989 91.5508 113.098 91.5508 112.354V106.365H92.9846Z" fill="white"/>
<path d="M102.2 106.365V115.677H100.767V106.365H102.2Z" fill="white"/>
<path d="M108.487 108.429C108.406 108.221 108.279 108.027 108.063 107.839C107.767 107.605 107.457 107.504 107.053 107.504C106.185 107.504 105.734 108.02 105.734 108.623C105.734 108.905 105.835 109.394 106.744 109.755L107.686 110.131C109.409 110.827 109.887 111.805 109.887 112.871C109.887 114.646 108.622 115.859 106.872 115.859C105.795 115.859 105.148 115.457 104.67 114.921C104.166 114.365 103.943 113.748 103.883 113.105L105.303 112.797C105.303 113.259 105.471 113.688 105.694 113.983C105.963 114.318 106.353 114.539 106.912 114.539C107.78 114.539 108.454 113.909 108.454 112.978C108.454 112.047 107.727 111.638 107.107 111.383L106.212 111.008C105.438 110.687 104.307 110.044 104.307 108.65C104.307 107.391 105.29 106.191 107.04 106.191C108.05 106.191 108.629 106.567 108.918 106.821C109.174 107.042 109.436 107.364 109.632 107.759L108.481 108.429H108.487Z" fill="white"/>
<path d="M117.346 107.678H115.717L116.504 106.365H118.78V115.677H117.346V107.678Z" fill="white"/>
<path d="M122.765 115.235L124.967 112.428C124.785 112.468 124.63 112.482 124.462 112.482C123.351 112.482 122.651 111.993 122.274 111.617C121.796 111.142 121.419 110.458 121.419 109.494C121.419 108.529 121.782 107.732 122.348 107.162C122.94 106.559 123.721 106.211 124.758 106.211C126.037 106.211 126.777 106.727 127.168 107.135C127.558 107.544 127.982 108.207 127.982 109.246C127.982 109.916 127.827 110.445 127.531 111.021C127.181 111.718 126.818 112.14 126.394 112.683L123.795 116.005L122.759 115.235H122.765ZM126.037 110.713C126.387 110.351 126.582 109.822 126.582 109.333C126.582 108.844 126.387 108.341 126.037 108.006C125.687 107.671 125.182 107.477 124.704 107.477C124.186 107.477 123.681 107.712 123.371 108.006C123.061 108.315 122.826 108.804 122.826 109.373C122.826 109.889 123.021 110.405 123.371 110.753C123.681 111.048 124.172 111.269 124.691 111.269C125.168 111.269 125.673 111.088 126.037 110.713Z" fill="white"/>
<path d="M134.822 111.591C135.172 112.053 135.246 112.569 135.246 112.984C135.246 113.935 134.882 114.578 134.505 114.967C134.068 115.429 133.368 115.831 132.304 115.831C131.24 115.831 130.534 115.429 130.103 114.967C129.726 114.578 129.362 113.935 129.362 112.984C129.362 112.569 129.43 112.046 129.786 111.591C129.995 111.296 130.332 111.021 130.769 110.834C130.379 110.666 130.11 110.385 129.941 110.137C129.706 109.762 129.605 109.286 129.605 108.864C129.605 108.127 129.874 107.424 130.392 106.921C130.688 106.64 131.288 106.211 132.318 106.211C133.347 106.211 133.947 106.646 134.243 106.921C134.761 107.424 135.03 108.12 135.03 108.864C135.03 109.279 134.929 109.755 134.694 110.137C134.525 110.391 134.256 110.666 133.866 110.834C134.303 111.014 134.64 111.296 134.849 111.591H134.822ZM131.187 111.885C130.904 112.167 130.749 112.609 130.749 113.018C130.749 113.379 130.89 113.801 131.166 114.11C131.362 114.331 131.712 114.585 132.291 114.585C132.87 114.585 133.22 114.331 133.415 114.11C133.697 113.801 133.839 113.386 133.839 113.018C133.839 112.616 133.684 112.167 133.401 111.885C133.119 111.604 132.701 111.45 132.291 111.45C131.88 111.45 131.463 111.604 131.18 111.885H131.187ZM131.267 107.852C131.032 108.087 130.877 108.469 130.877 108.884C130.877 109.299 131.045 109.654 131.254 109.862C131.51 110.13 131.927 110.284 132.291 110.284C132.654 110.284 133.078 110.13 133.327 109.862C133.536 109.654 133.704 109.319 133.704 108.884C133.704 108.449 133.549 108.087 133.314 107.852C133.078 107.631 132.721 107.477 132.291 107.477C131.86 107.477 131.503 107.631 131.267 107.852Z" fill="white"/>
<path d="M137.999 115.235L140.2 112.428C140.018 112.468 139.863 112.482 139.695 112.482C138.584 112.482 137.884 111.993 137.507 111.617C137.029 111.142 136.652 110.458 136.652 109.494C136.652 108.529 137.016 107.732 137.581 107.162C138.174 106.559 138.955 106.211 139.991 106.211C141.27 106.211 142.011 106.727 142.401 107.135C142.792 107.544 143.216 108.207 143.216 109.246C143.216 109.916 143.061 110.445 142.765 111.021C142.415 111.718 142.051 112.14 141.627 112.683L139.029 116.005L137.992 115.235H137.999ZM141.27 110.713C141.62 110.351 141.816 109.822 141.816 109.333C141.816 108.844 141.62 108.341 141.27 108.006C140.92 107.671 140.415 107.477 139.937 107.477C139.419 107.477 138.914 107.712 138.605 108.006C138.295 108.315 138.059 108.804 138.059 109.373C138.059 109.889 138.254 110.405 138.605 110.753C138.914 111.048 139.406 111.269 139.924 111.269C140.402 111.269 140.907 111.088 141.27 110.713Z" fill="white"/>
</g>
<defs>
<clipPath id="clip0_521_3059">
<rect width="212" height="116" fill="white"/>
</clipPath>
</defs>
</svg>
