<svg width="43" height="27" viewBox="0 0 43 27" fill="none" xmlns="http://www.w3.org/2000/svg">
<g clip-path="url(#clip0_521_2925)">
<path d="M32.3104 18.7734H38.8271V21.0511C38.8271 22.1231 37.9534 22.993 36.8747 22.993H34.6014C34.6014 21.2282 33.6896 19.6757 32.3094 18.7734H32.3104Z" fill="#44B9B5"/>
<path d="M0.497175 13.8071L3.64705 8.28584C4.32507 7.09765 5.59206 6.36426 6.96573 6.36426H12.8564V15.9713C12.8564 17.5183 14.1179 18.7729 15.6733 18.7729H26.7461C25.3659 19.6751 24.4542 21.2277 24.4542 22.9925H13.9008C13.9008 20.2056 11.6293 17.9454 8.82634 17.9454C6.02336 17.9454 3.75186 20.2047 3.75186 22.9925H1.95153C0.873751 22.9925 -0.000904083 22.1235 -0.000904083 21.0506V15.6798C-0.000904083 15.0229 0.170687 14.3781 0.496248 13.8061L0.497175 13.8071ZM10.3901 13.3052V8.8495H6.91286C6.42591 8.8495 5.97606 9.13363 5.72934 9.59581L3.75278 13.3043H10.3901V13.3052Z" fill="#44B9B5"/>
<path d="M29.5275 18.9844C31.7526 18.9844 33.5566 20.7787 33.5566 22.9918C33.5566 25.2049 31.7526 26.9991 29.5275 26.9991C27.3023 26.9991 25.4983 25.2049 25.4983 22.9918C25.4983 20.7787 27.3023 18.9844 29.5275 18.9844ZM29.5275 24.7694C30.5134 24.7694 31.3148 23.9724 31.3148 22.9918C31.3148 22.0111 30.5134 21.2141 29.5275 21.2141C28.5415 21.2141 27.7401 22.0111 27.7401 22.9918C27.7401 23.9724 28.5415 24.7694 29.5275 24.7694Z" fill="#44B9B5"/>
<path d="M8.82631 18.9844C11.0514 18.9844 12.8555 20.7787 12.8555 22.9918C12.8555 25.2049 11.0514 26.9991 8.82631 26.9991C6.60118 26.9991 4.79714 25.2049 4.79714 22.9918C4.79714 20.7787 6.60118 18.9844 8.82631 18.9844ZM8.82631 24.7694C9.81226 24.7694 10.6136 23.9724 10.6136 22.9918C10.6136 22.0111 9.81226 21.2141 8.82631 21.2141C7.84035 21.2141 7.03897 22.0111 7.03897 22.9918C7.03897 23.9724 7.84035 24.7694 8.82631 24.7694Z" fill="#44B9B5"/>
<path d="M15.9451 0H40.9557C42.0848 0 43 0.910299 43 2.03321V15.6661C43 16.789 42.0848 17.6993 40.9557 17.6993H15.9451C14.816 17.6993 13.9008 16.789 13.9008 15.6661V2.03321C13.9008 0.910299 14.816 0 15.9451 0Z" fill="#44B9B5"/>
</g>
<defs>
<clipPath id="clip0_521_2925">
<rect width="43" height="27" fill="white" transform="matrix(-1 0 0 1 43 0)"/>
</clipPath>
</defs>
</svg>
